<svg version="1" xmlns="http://www.w3.org/2000/svg" width="1200" height="1200" viewBox="0 0 900.000000 900.000000"><path d="M777.5 182.1c-2.2.4-5.7 1.1-7.7 1.4-14.6 2.1-51.2 10.7-71.8 16.8-7.7 2.3-30.6 10.5-35.5 12.6-49.7 22.3-80.6 46.6-114.9 90.1-.6.8-4.3 6.2-8.2 12-23.3 34.9-30.8 69.7-19.6 91.6 2.7 5.2 10.6 13.3 16.7 17.2 4.8 2.9 19.8 8.4 26.1 9.5 22.3 3.9 29.1 4.5 55.9 5.3 11 .3 20.1.7 20.2.8.4.3-8.5 26.3-11 32.2-4.2 9.8-11.5 24.9-15.9 32.7-4.1 7.3-20.7 33.8-21.7 34.7-.3.3-2.2 2.7-4 5.5-10.4 15-28.1 34.7-40.8 45.3l-5.2 4.3-1.5-3.5c-4.3-10.2-15.8-47-22.6-72.1-1.5-5.5-5.5-19.5-7.4-26-.2-.6-.6-2.4-1.1-4-.4-1.7-3.6-13.4-7.2-26-23-81.9-41.4-131.5-60.2-162.3-22.1-36.2-55.1-66.9-91.6-85.5-22.8-11.6-50.1-19.8-74-22.2-2.2-.3-6.2-.7-9-1-5.4-.5-32.4-.6-39-.1-5 .5-13.2 1.5-16.5 2.1-1.4.3-3.4.7-4.5.9-22.1 4.3-44.5 13.2-62.9 24.9-4.4 2.8-8.3 5.4-8.6 5.7-.3.3-3.2 2.5-6.5 5-8.2 6.1-25.9 23.7-34.1 34-23.9 30-42.4 70.3-48.8 106.5-.3 1.6-.8 4.1-1.1 5.5-1.3 5.8-3.6 24.2-4.3 33-1.3 18.1-.6 62.5 1.2 73 .3 1.4.7 5 1.1 8.1.3 3.1.8 6.7 1.1 8 .2 1.3.7 4 1 5.9.3 1.9 1 5.5 1.6 8 .5 2.5 1.2 5.6 1.4 7 2.4 12.9 10.7 37.1 18 52.8C68.7 580.7 78.7 599 80 600c.3.3 1.7 2.3 3 4.5 10.7 17.5 38.6 45.7 58.5 59 3.3 2.2 6.2 4.3 6.5 4.6 2.6 3 29.1 17.1 44.5 23.6 21.7 9.3 42.8 15.4 66.5 19.4 9.1 1.5 10.5 1.7 19.5 2.4 4.4.4 8.9.9 10 1.1 2.6.6 42.4.5 49-.1 23.6-2.1 41.6-5 59.7-9.5 31.6-8 70.9-24 94.7-38.5 3.2-1.9 6.3-3.5 6.7-3.5.5 0 2.5 2.2 4.4 4.7 8.1 10.8 25.3 26 36.5 32.4 13.7 7.7 32.5 15 42.3 16.5 2 .3 4.3.7 5 .9 7.7 2.6 57 2.6 64.3.1.8-.3 3.2-.8 5.4-1 21.5-2.7 52.2-14 74.5-27.5 9-5.5 23-15.2 26.7-18.6.6-.5 4.8-4.1 9.2-8 32.2-27.5 66-76.1 80.5-115.5 3.8-10.2 9.1-29.1 10.1-35.4.3-2.1.7-4.1.9-4.5.2-.3.7-3.5 1.1-7.1.4-3.6.9-7.4 1.1-8.5 1.2-5.2 1-34.7-.2-42.5-2.8-18.7-11.2-35.8-23.6-48.1-11-10.9-29.6-20.8-45.3-24.1-5.1-1-6.1-1.2-18-2.5-3.8-.4-23.1-.7-42.7-.7l-35.8.2-.1-5.9c-.1-3.3-.2-6.2-.3-6.7-.1-.4-.6-3.2-1.1-6.2-.5-3-.9-5.7-1-6-.1-.3-.5-1.9-1-3.5-4.5-16.8-16.5-31.6-30.5-37.7-8.6-3.7-9-3.6-15.4 3.3l-5.8 6.3 2.5 9.6c1.4 5.2 2.9 11.5 3.2 14 .4 2.5.9 5.4 1.1 6.5.3 1.1.6 7.5.8 14.2.4 14.1 1.7 12.6-10.9 12.3-38.2-.7-54.6-3.8-58.9-11.1-3.6-6.2-2.3-23.9 2.9-36.8 10-25.4 35.3-49.4 72.6-69 21.1-11.1 36.7-16 52.4-16.5 12.8-.5 14.4 3.1 12.1 27.2-.4 4.1-.9 8.1-1.1 9-.5 3-1.4 9.6-2 14.7-.3 2.7-.7 6.1-1 7.5-.2 1.4-.7 5.2-1 8.5-.6 5.9-1.1 9.6-2 14.5-1.9 10.8-2.1 10.1 5.1 15.9 5.3 4.3 7 5.2 9.1 4.6 5.2-1.3 63.8-25.1 79.1-32.1 4.1-1.9 7.5-3.4 7.7-3.4 1.7 0 19.5-9.4 19.5-10.3 0-.6-1.6-5.3-3.4-10.2-3.7-9.6-4.9-10.9-13.3-14.1l-4.2-1.6-10.5 4.2c-5.8 2.3-12.2 4.6-14.2 5l-3.6.8.7-6.1c.9-8.6 1-9 4.5-29.2 1.7-9.9 3.3-19.4 3.6-21 .3-1.7 1.8-9.5 3.4-17.5l3-14.4-5.7-5.8c-6-6-6.6-6.2-13.8-4.7zm-518.7 48.4c4.8.7 7.1 1.2 14.4 2.9 50.3 11.8 89.7 51.7 121.4 123.3 4.9 11.3 18.3 45.1 18.8 47.8.2.5 2.5 8 5.3 16.6 4.4 13.4 15.7 52.8 22.4 78.4 1.2 4.4 2.5 9.1 2.9 10.5.5 1.4 3.2 11.3 6 22 10.7 40.1 19.9 70.1 24 78.5 2 4 7.2 17.1 7.7 19.2.4 1.9-1.1 2.9-13.8 9.1-31.2 15.1-63.9 25.6-90.3 28.7-2.8.4-5.3.8-5.6 1-1 .6-22.1 1.8-33 1.8-87.1.2-170.9-48.1-214.3-123.5-14.7-25.4-29-64.2-33.2-89.8-.3-1.9-1-6-1.5-9-3.3-17.8-3.4-58.8-.4-80 4.4-30.7 13.7-57 27.7-78.2 7-10.7 9.4-13.6 19.3-23.4 17.1-17 41-29.4 65.4-33.9 1.4-.3 3.6-.7 5-1 1.4-.3 5.9-.8 10-1.2 4.1-.3 7.7-.7 7.9-.9.5-.4 30 .5 33.9 1.1zm477.7 208.9c26.1 2.8 43 8.4 51.9 17.2 10.4 10.2 14.5 24.7 14.1 49.6-.3 12.9-.6 16.8-2 24.8-.3 1.4-.8 4.3-1.1 6.5-.8 5.9-5.2 20.9-8.5 29.3-9.1 22.8-23.6 44.6-42.8 64.1-32.9 33.5-68.1 49.7-109.5 50.6-27.3.5-45.7-5.7-60.6-20.5-7.3-7.3-15.9-19.2-21.4-29.5l-2.6-5 2.3-2c1.3-1.1 6.5-5.4 11.5-9.5 9.4-7.7 35.2-33.4 43.2-42.9 34.3-41 59.4-83.6 72.1-122.6 1.6-4.9 3.1-9.5 3.4-10.2.3-.8 6.3-1 22.7-.8 12.3.3 24.6.7 27.3.9z"/></svg>